HIERARCHY
ROOT Hips
{
 OFFSET 0.000000 0.000000 0.000000
 CHANNELS 6 Xposition Yposition Zposition Yrotation Xrotation Zrotation
 JOINT Chest
 {
  OFFSET 0.000000 9.585900 0.002600
  CHANNELS 3 Yrotation Xrotation Zrotation
  JOINT Chest2
  {
   OFFSET 0.000000 9.601200 -0.005300
   CHANNELS 3 Yrotation Xrotation Zrotation
   JOINT Chest3
   {
    OFFSET 0.000000 9.561800 0.000000
    CHANNELS 3 Yrotation Xrotation Zrotation
    JOINT Chest4
    {
     OFFSET 0.000000 9.552100 0.000000
     CHANNELS 3 Yrotation Xrotation Zrotation
     JOINT Neck
     {
      OFFSET 0.000000 14.453000 0.000000
      CHANNELS 3 Yrotation Xrotation Zrotation
      JOINT Head
      {
       OFFSET 0.000000 8.936500 -0.011300
       CHANNELS 3 Yrotation Xrotation Zrotation
       End Site
       {
        OFFSET 0.000000 17.073600 -0.006000
       }
      }
     }
     JOINT RightCollar
     {
      OFFSET -2.921100 9.558500 0.000000
      CHANNELS 3 Yrotation Xrotation Zrotation
      JOINT RightShoulder
      {
       OFFSET -13.519700 0.000000 0.000000
       CHANNELS 3 Yrotation Xrotation Zrotation
       JOINT RightElbow
       {
        OFFSET 0.000000 -29.696600 0.000000
        CHANNELS 3 Yrotation Xrotation Zrotation
        JOINT RightWrist
        {
         OFFSET 0.000000 -24.004700 0.000000
         CHANNELS 3 Yrotation Xrotation Zrotation
         End Site
         {
          OFFSET 0.000000 -17.728500 0.000000
         }
        }
       }
      }
     }
     JOINT LeftCollar
     {
      OFFSET 2.921100 9.558500 0.000000
      CHANNELS 3 Yrotation Xrotation Zrotation
      JOINT LeftShoulder
      {
       OFFSET 13.519700 0.000000 0.000000
       CHANNELS 3 Yrotation Xrotation Zrotation
       JOINT LeftElbow
       {
        OFFSET 0.000000 -29.696600 0.000000
        CHANNELS 3 Yrotation Xrotation Zrotation
        JOINT LeftWrist
        {
         OFFSET 0.000000 -24.004700 0.000000
         CHANNELS 3 Yrotation Xrotation Zrotation
         End Site
         {
          OFFSET 0.000000 -17.728500 0.000000
         }
        }
       }
      }
     }
    }
   }
  }
 }
 JOINT RightHip
 {
  OFFSET -7.771700 -0.012900 -0.001300
  CHANNELS 3 Yrotation Xrotation Zrotation
  JOINT RightKnee
  {
   OFFSET 0.000000 -40.869800 0.001200
   CHANNELS 3 Yrotation Xrotation Zrotation
   JOINT RightAnkle
   {
    OFFSET 0.000000 -39.717900 0.002100
    CHANNELS 3 Yrotation Xrotation Zrotation
    JOINT RightToe
    {
     OFFSET 0.000000 -4.965400 11.033500
     CHANNELS 3 Yrotation Xrotation Zrotation
     End Site
     {
      OFFSET 0.000000 -1.423100 5.872300
     }
    }
   }
  }
 }
 JOINT LeftHip
 {
  OFFSET 7.771700 -0.012900 -0.001300
  CHANNELS 3 Yrotation Xrotation Zrotation
  JOINT LeftKnee
  {
   OFFSET 0.000000 -40.869800 0.001200
   CHANNELS 3 Yrotation Xrotation Zrotation
   JOINT LeftAnkle
   {
    OFFSET 0.000000 -39.717900 0.002100
    CHANNELS 3 Yrotation Xrotation Zrotation
    JOINT LeftToe
    {
     OFFSET 0.000000 -4.965400 11.033500
     CHANNELS 3 Yrotation Xrotation Zrotation
     End Site
     {
      OFFSET 0.000000 -1.423100 5.872300
     }
    }
   }
  }
 }
}
MOTION
Frames: 15
Frame Time: 0.008333
-48.821131 57.858794 11.602673 179.599438 -51.229679 -3.290417 2.890475 24.248585 3.225303 1.441546 13.852614 1.727769 1.883873 17.308150 2.233119 1.412940 13.774701 1.710369 1.225394 13.639776 5.154756 0.240906 -10.545184 9.161962 4.679245 -1.673032 1.714705 7.507936 -23.449377 -15.250844 -66.903673 -37.084046 136.160997 7.537829 8.410860 5.799589 -11.807939 -5.815357 -1.505307 -7.305212 -18.393917 14.592899 77.523143 -43.142579 -137.566156 -3.007418 -5.216739 -0.760229 4.043862 -20.142023 -3.938697 -33.393469 74.326353 -38.129688 6.091077 -15.472231 12.072729 0.051565 -0.015355 0.045379 -6.333643 -17.980548 5.431457 85.681238 82.939177 84.398175 -0.055201 -21.745444 -17.126095 0.025812 0.081290 0.011691
-48.821821 57.859867 11.602123 179.596306 -51.263449 -3.290191 2.866895 24.180359 3.205329 1.451213 13.898420 1.730231 1.855393 17.240188 2.215365 1.424037 13.815484 1.716482 1.208219 13.610424 5.096205 0.274768 -10.441385 9.143948 4.717509 -1.637226 1.661105 7.451321 -23.408285 -15.194648 -66.880869 -37.121159 136.075734 7.434426 8.349573 5.666697 -11.778291 -5.752029 -1.522823 -7.216349 -18.425688 14.553371 77.344291 -43.181038 -137.424420 -2.958724 -5.252924 -0.663208 4.042190 -20.108091 -3.935563 -33.397068 74.326830 -38.138860 6.113292 -15.495229 12.071261 0.032748 -0.011607 0.041595 -6.354683 -17.942268 5.437569 85.677184 82.938537 84.369056 -0.053393 -21.745091 -17.126593 0.029290 0.077193 0.012229
-48.823409 57.860582 11.601627 179.593316 -51.295414 -3.286758 2.855284 24.156673 3.195105 1.422691 13.823407 1.713749 1.859338 17.271627 2.214349 1.422803 13.823386 1.713836 1.214992 13.639425 5.071751 0.299106 -10.389127 9.093803 4.757429 -1.579211 1.628109 7.409040 -23.376886 -15.157198 -66.861399 -37.152749 136.006124 7.332995 8.303900 5.508578 -11.744430 -5.679470 -1.543988 -7.143393 -18.438420 14.520465 77.234051 -43.198332 -137.371492 -2.905718 -5.248227 -0.512459 4.041985 -20.075612 -3.934811 -33.419287 74.325668 -38.164200 6.111032 -15.522920 12.070873 0.032097 0.001549 0.041875 -6.357465 -17.909207 5.433328 85.676168 82.938013 84.365175 -0.056813 -21.743929 -17.132077 0.037634 0.072239 0.015020
-48.824969 57.860880 11.601332 179.596743 -51.324907 -3.290634 2.841068 24.127609 3.188244 1.413945 13.810722 1.707537 1.848026 17.255753 2.206169 1.414015 13.810688 1.707629 1.230637 13.690607 5.056996 0.321667 -10.351490 9.037196 4.794597 -1.491047 1.627048 7.393098 -23.365061 -15.142150 -66.845156 -37.190529 135.931683 7.231637 8.268579 5.338552 -11.711764 -5.677856 -1.587592 -7.080419 -18.359139 14.506694 77.142754 -43.215548 -137.324672 -2.845065 -5.243921 -0.351513 4.039002 -20.046428 -3.931735 -33.448116 74.325225 -38.193861 6.111179 -15.541447 12.071147 0.028782 -0.024825 0.033042 -6.365923 -17.878276 5.432647 85.676553 82.936095 84.360029 -0.058342 -21.744446 -17.136245 0.042246 0.070957 0.017122
-48.827347 57.859659 11.602115 179.601656 -51.343873 -3.292784 2.823201 24.085796 3.175736 1.405292 13.795631 1.701277 1.836696 17.236980 2.197939 1.405286 13.795617 1.701334 1.239329 13.726197 5.033816 0.349264 -10.287117 8.988501 4.832201 -1.392425 1.628032 7.358275 -23.348846 -15.139279 -66.826151 -37.215513 135.865206 7.128229 8.230717 5.171558 -11.679409 -5.615073 -1.616002 -7.011311 -18.328890 14.484462 76.977044 -43.247474 -137.160439 -2.796691 -5.297119 -0.243291 4.032981 -20.024790 -3.934193 -33.441936 74.324834 -38.190283 6.108390 -15.563957 12.071699 0.023237 -0.023001 0.028732 -6.385320 -17.857375 5.432377 85.678717 82.929231 84.342426 -0.058851 -21.748271 -17.136248 0.040128 0.077604 0.017374
-48.830438 57.860264 11.601368 179.606801 -51.378108 -3.292344 2.806885 24.056779 3.160172 1.396312 13.778448 1.695770 1.832890 17.242249 2.195938 1.388818 13.751673 1.691870 1.240214 13.745445 5.001429 0.380744 -10.197389 8.946656 4.871682 -1.305193 1.610437 7.259769 -23.301790 -15.112505 -66.787174 -37.231864 135.827310 7.021985 8.188896 5.002873 -11.647259 -5.530537 -1.641991 -6.957227 -18.305346 14.468619 76.874738 -43.268957 -137.069742 -2.720366 -5.325142 -0.081052 4.021379 -19.989992 -3.941834 -33.433392 74.327344 -38.190829 6.122568 -15.578406 12.074098 0.009267 -0.028330 0.021479 -6.416160 -17.822806 5.430885 85.722634 82.925365 84.355715 -0.060073 -21.742323 -17.135303 0.039968 0.071171 0.016951
-48.833392 57.863891 11.598385 179.629125 -51.435021 -3.307047 2.784196 24.049066 3.146934 1.387943 13.760357 1.690397 1.844402 17.300109 2.205871 1.359153 13.652788 1.673563 1.261695 13.828607 4.998875 0.399560 -10.171387 8.881972 4.921739 -1.216044 1.596031 7.178076 -23.256803 -15.069952 -66.755296 -37.267010 135.756006 6.910613 8.148746 4.831470 -11.615255 -5.416457 -1.658765 -6.938854 -18.297542 14.463524 76.801485 -43.286810 -136.973713 -2.631899 -5.353859 0.091461 4.004045 -19.929622 -3.941683 -33.440391 74.331137 -38.204499 6.120743 -15.594383 12.075850 0.009799 -0.024842 0.021512 -6.434972 -17.765049 5.422747 85.739945 82.927504 84.365092 -0.063086 -21.736067 -17.138296 0.042205 0.061200 0.019386
-48.835624 57.864217 11.598334 179.638970 -51.467153 -3.316699 2.770642 24.014839 3.136114 1.388373 13.784714 1.694136 1.805361 17.155228 2.173625 1.375714 13.714958 1.680126 1.259223 13.845191 4.968059 0.419263 -10.069273 8.887407 4.954555 -1.125500 1.588085 7.104008 -23.209069 -15.026142 -66.720803 -37.301772 135.680005 6.788658 8.111785 4.662667 -11.595882 -5.336964 -1.680584 -6.863186 -18.265407 14.438170 76.661751 -43.314595 -136.864149 -2.530740 -5.379372 0.271367 3.993026 -19.894659 -3.937897 -33.424082 74.332271 -38.192306 6.116405 -15.614117 12.070654 0.006897 -0.025389 0.022514 -6.446218 -17.733294 5.422652 85.730060 82.927058 84.349269 -0.067884 -21.732021 -17.137440 0.044449 0.058711 0.019724
-48.836788 57.863264 11.599736 179.641858 -51.489234 -3.326976 2.765780 23.969353 3.131963 1.387172 13.809069 1.697290 1.793997 17.090724 2.158666 1.376277 13.698267 1.674982 1.253861 13.860132 4.936399 0.437102 -9.983773 8.834959 4.972221 -1.037195 1.587300 7.034873 -23.159883 -14.983585 -66.681116 -37.336679 135.595775 6.654241 8.072404 4.492942 -11.580808 -5.258937 -1.695742 -6.720348 -18.250108 14.375113 76.432449 -43.351995 -136.740881 -2.419896 -5.399747 0.459223 3.986905 -19.871614 -3.928904 -33.410877 74.333732 -38.181438 6.125639 -15.636457 12.065626 0.014051 -0.041174 0.018872 -6.453886 -17.710999 5.429369 85.726543 82.927429 84.344299 -0.072764 -21.733210 -17.140748 0.047917 0.059821 0.021955
-48.838362 57.862568 11.601304 179.644445 -51.512954 -3.333704 2.764606 23.959076 3.131700 1.376341 13.694626 1.674668 1.808341 17.211781 2.184416 1.366380 13.600998 1.653725 1.252157 13.896887 4.914837 0.446528 -9.921204 8.772277 4.975969 -0.969931 1.563213 6.959060 -23.093647 -14.907812 -66.629999 -37.373623 135.501421 6.512201 8.026245 4.314186 -11.571465 -5.180102 -1.708919 -6.651175 -18.214886 14.349755 76.263733 -43.368352 -136.614395 -2.303771 -5.410232 0.648397 3.983020 -19.846717 -3.922320 -33.393477 74.335234 -38.165386 6.120653 -15.652915 12.062783 0.012129 -0.037108 0.019143 -6.458605 -17.686768 5.432767 85.718071 82.927519 84.332882 -0.077583 -21.736078 -17.141781 0.048904 0.062942 0.023789
-48.839290 57.864992 11.600900 179.645341 -51.559479 -3.341837 2.767428 23.970864 3.135270 1.370840 13.621805 1.661017 1.810390 17.213134 2.183626 1.363146 13.578711 1.651593 1.249207 13.934451 4.892350 0.451980 -9.852331 8.729554 4.978834 -0.877487 1.554307 6.888044 -23.046607 -14.849035 -66.567302 -37.410681 135.400682 6.364287 7.972438 4.122546 -11.569146 -5.096833 -1.723507 -6.575842 -18.176197 14.323943 76.080106 -43.376265 -136.474890 -2.187936 -5.407838 0.827267 3.980487 -19.796944 -3.909653 -33.381545 74.331840 -38.152416 6.111914 -15.665130 12.055998 0.013221 -0.036985 0.021961 -6.459189 -17.638348 5.435558 85.674990 82.927668 84.289578 -0.081984 -21.729603 -17.143504 0.048052 0.059671 0.025022
-48.840904 57.866243 11.601814 179.654667 -51.595878 -3.351478 2.753102 23.873193 3.115756 1.372934 13.668250 1.669610 1.797315 17.106207 2.160970 1.369500 13.640273 1.664804 1.245935 13.972980 4.868546 0.457423 -9.781733 8.684450 4.985847 -0.771129 1.551983 6.814147 -23.005888 -14.800248 -66.523274 -37.427572 135.374861 6.204132 7.942731 3.861339 -11.575253 -5.058359 -1.749681 -6.485846 -18.081892 14.299115 75.876079 -43.377584 -136.320501 -2.078606 -5.393468 0.984931 3.976592 -19.757855 -3.905302 -33.378046 74.329708 -38.146837 6.111257 -15.674871 12.050660 0.014402 -0.043543 0.022531 -6.463465 -17.601604 5.434123 85.631804 82.916669 84.245033 -0.092440 -21.723911 -17.145031 0.049246 0.059486 0.026271
-48.842685 57.867108 11.603452 179.662713 -51.628019 -3.358382 2.744198 23.837383 3.108957 1.368700 13.646943 1.665115 1.788093 17.051689 2.149964 1.368676 13.646928 1.665118 1.242611 14.012424 4.843338 0.463400 -9.709514 8.636667 4.993822 -0.661829 1.550019 6.741433 -22.959826 -14.755031 -66.440651 -37.465172 135.231306 6.065248 7.868647 3.683090 -11.576432 -4.967938 -1.772072 -6.413594 -18.031749 14.279795 75.669366 -43.371915 -136.148431 -1.979237 -5.371037 1.110894 3.973125 -19.724586 -3.902743 -33.381682 74.329651 -38.150451 6.112314 -15.685095 12.048200 0.017391 -0.041023 0.024330 -6.466585 -17.569181 5.431466 85.598341 82.907782 84.209724 -0.100279 -21.722127 -17.147203 0.051198 0.061004 0.027735
-48.844634 57.867779 11.605634 179.668256 -51.657181 -3.362043 2.738989 23.832643 3.105280 1.360867 13.591576 1.657653 1.781461 17.024195 2.143863 1.363686 13.624874 1.660552 1.238944 14.052386 4.816333 0.469315 -9.636361 8.585664 5.006037 -0.537636 1.562441 6.675844 -22.921412 -14.731058 -66.353539 -37.504737 135.075883 5.930451 7.805841 3.503885 -11.579789 -4.876931 -1.799031 -6.305873 -17.966268 14.250761 75.451074 -43.376039 -135.993807 -1.889662 -5.341448 1.203740 3.973960 -19.694551 -3.902562 -33.385267 74.328530 -38.151938 6.108833 -15.692958 12.047472 0.021287 -0.038158 0.025584 -6.468252 -17.540249 5.427421 85.556499 82.904161 84.166839 -0.104318 -21.718900 -17.148678 0.054037 0.061347 0.028040
-48.847094 57.869913 11.606995 179.685419 -51.695426 -3.371988 2.725105 23.838002 3.099092 1.353744 13.536716 1.650157 1.774701 16.996023 2.137890 1.358608 13.602293 1.656118 1.234762 14.092199 4.788179 0.476550 -9.548886 8.580861 5.015896 -0.412890 1.575005 6.612655 -22.880308 -14.708552 -66.281351 -37.541970 134.950829 5.792993 7.762553 3.297258 -11.588764 -4.784721 -1.826841 -6.156330 -17.885455 14.208325 75.230137 -43.397319 -135.861026 -1.803995 -5.303743 1.259954 3.973459 -19.647754 -3.912625 -33.364769 74.325804 -38.122462 6.112668 -15.707021 12.048643 0.011624 -0.036993 0.019855 -6.475356 -17.502340 5.418919 85.514041 82.901499 84.124299 -0.109869 -21.713414 -17.150842 0.064548 0.058251 0.028839
